<mxfile host="www.draw.io" modified="2024-03-28T15:08:37.508Z" agent="Mozilla/5.0 (Windows NT 10.0; Win64; x64) AppleWebKit/537.36 (KHTML, like Gecko) Chrome/123.0.0.0 Safari/537.36" etag="0trfpJrckKeTAjJSTToL" version="24.2.0" type="device">
  <diagram name="Page-1" id="yEiVheI6lge30i4Iofu3">
    <mxGraphModel dx="1434" dy="746" grid="1" gridSize="10" guides="1" tooltips="1" connect="1" arrows="1" fold="1" page="1" pageScale="1" pageWidth="827" pageHeight="1169" math="0" shadow="0">
      <root>
        <mxCell id="0" />
        <mxCell id="1" parent="0" />
        <mxCell id="hcDZTdP5PS0aj2bccaUB-6" value="" style="edgeStyle=orthogonalEdgeStyle;rounded=0;orthogonalLoop=1;jettySize=auto;html=1;" edge="1" parent="1" source="hcDZTdP5PS0aj2bccaUB-1" target="hcDZTdP5PS0aj2bccaUB-3">
          <mxGeometry relative="1" as="geometry" />
        </mxCell>
        <mxCell id="hcDZTdP5PS0aj2bccaUB-10" style="edgeStyle=orthogonalEdgeStyle;rounded=0;orthogonalLoop=1;jettySize=auto;html=1;exitX=0.5;exitY=1;exitDx=0;exitDy=0;entryX=0.5;entryY=0;entryDx=0;entryDy=0;" edge="1" parent="1" source="hcDZTdP5PS0aj2bccaUB-1" target="hcDZTdP5PS0aj2bccaUB-2">
          <mxGeometry relative="1" as="geometry" />
        </mxCell>
        <mxCell id="hcDZTdP5PS0aj2bccaUB-20" style="edgeStyle=orthogonalEdgeStyle;rounded=0;orthogonalLoop=1;jettySize=auto;html=1;exitX=1;exitY=0.5;exitDx=0;exitDy=0;entryX=1;entryY=0.5;entryDx=0;entryDy=0;" edge="1" parent="1" source="hcDZTdP5PS0aj2bccaUB-1" target="hcDZTdP5PS0aj2bccaUB-19">
          <mxGeometry relative="1" as="geometry" />
        </mxCell>
        <mxCell id="hcDZTdP5PS0aj2bccaUB-1" value="&lt;b&gt;&lt;font style=&quot;font-size: 16px;&quot;&gt;Input&lt;/font&gt;&lt;/b&gt;" style="rounded=0;whiteSpace=wrap;html=1;fillColor=#f5f5f5;fontColor=#333333;strokeColor=#666666;" vertex="1" parent="1">
          <mxGeometry x="120" y="60" width="90" height="40" as="geometry" />
        </mxCell>
        <mxCell id="hcDZTdP5PS0aj2bccaUB-13" style="edgeStyle=orthogonalEdgeStyle;rounded=0;orthogonalLoop=1;jettySize=auto;html=1;exitX=0.5;exitY=1;exitDx=0;exitDy=0;entryX=0.5;entryY=0;entryDx=0;entryDy=0;" edge="1" parent="1" source="hcDZTdP5PS0aj2bccaUB-2" target="hcDZTdP5PS0aj2bccaUB-12">
          <mxGeometry relative="1" as="geometry" />
        </mxCell>
        <mxCell id="hcDZTdP5PS0aj2bccaUB-2" value="&lt;b&gt;&lt;font style=&quot;font-size: 16px;&quot;&gt;1 * 1 Conv, 24&lt;/font&gt;&lt;/b&gt;" style="rounded=0;whiteSpace=wrap;html=1;fillColor=#f8cecc;strokeColor=#b85450;" vertex="1" parent="1">
          <mxGeometry x="45" y="150" width="90" height="40" as="geometry" />
        </mxCell>
        <mxCell id="hcDZTdP5PS0aj2bccaUB-8" style="edgeStyle=orthogonalEdgeStyle;rounded=0;orthogonalLoop=1;jettySize=auto;html=1;exitX=0.5;exitY=1;exitDx=0;exitDy=0;entryX=0.5;entryY=0;entryDx=0;entryDy=0;" edge="1" parent="1" source="hcDZTdP5PS0aj2bccaUB-3" target="hcDZTdP5PS0aj2bccaUB-4">
          <mxGeometry relative="1" as="geometry" />
        </mxCell>
        <mxCell id="hcDZTdP5PS0aj2bccaUB-3" value="&lt;b&gt;&lt;font style=&quot;font-size: 16px;&quot;&gt;1 * 1 Conv, 24&lt;/font&gt;&lt;/b&gt;" style="rounded=0;whiteSpace=wrap;html=1;fillColor=#f8cecc;strokeColor=#b85450;" vertex="1" parent="1">
          <mxGeometry x="180" y="150" width="90" height="40" as="geometry" />
        </mxCell>
        <mxCell id="hcDZTdP5PS0aj2bccaUB-9" style="edgeStyle=orthogonalEdgeStyle;rounded=0;orthogonalLoop=1;jettySize=auto;html=1;exitX=0.5;exitY=1;exitDx=0;exitDy=0;entryX=0.5;entryY=0;entryDx=0;entryDy=0;" edge="1" parent="1" source="hcDZTdP5PS0aj2bccaUB-4" target="hcDZTdP5PS0aj2bccaUB-5">
          <mxGeometry relative="1" as="geometry" />
        </mxCell>
        <mxCell id="hcDZTdP5PS0aj2bccaUB-4" value="&lt;b&gt;&lt;font style=&quot;font-size: 16px;&quot;&gt;1 * 3 Conv, 28&lt;/font&gt;&lt;/b&gt;" style="rounded=0;whiteSpace=wrap;html=1;fillColor=#f8cecc;strokeColor=#b85450;" vertex="1" parent="1">
          <mxGeometry x="180" y="220" width="90" height="40" as="geometry" />
        </mxCell>
        <mxCell id="hcDZTdP5PS0aj2bccaUB-14" style="edgeStyle=orthogonalEdgeStyle;rounded=0;orthogonalLoop=1;jettySize=auto;html=1;exitX=0;exitY=0.5;exitDx=0;exitDy=0;entryX=1;entryY=0.5;entryDx=0;entryDy=0;" edge="1" parent="1" source="hcDZTdP5PS0aj2bccaUB-5" target="hcDZTdP5PS0aj2bccaUB-12">
          <mxGeometry relative="1" as="geometry" />
        </mxCell>
        <mxCell id="hcDZTdP5PS0aj2bccaUB-5" value="&lt;b&gt;&lt;font style=&quot;font-size: 16px;&quot;&gt;3 * 1 Conv, 32&lt;/font&gt;&lt;/b&gt;" style="rounded=0;whiteSpace=wrap;html=1;fillColor=#f8cecc;strokeColor=#b85450;" vertex="1" parent="1">
          <mxGeometry x="180" y="300" width="90" height="40" as="geometry" />
        </mxCell>
        <mxCell id="hcDZTdP5PS0aj2bccaUB-18" style="edgeStyle=orthogonalEdgeStyle;rounded=0;orthogonalLoop=1;jettySize=auto;html=1;exitX=0.5;exitY=1;exitDx=0;exitDy=0;entryX=0.5;entryY=0;entryDx=0;entryDy=0;" edge="1" parent="1" source="hcDZTdP5PS0aj2bccaUB-12" target="hcDZTdP5PS0aj2bccaUB-15">
          <mxGeometry relative="1" as="geometry" />
        </mxCell>
        <mxCell id="hcDZTdP5PS0aj2bccaUB-12" value="&lt;b&gt;&lt;font style=&quot;font-size: 16px;&quot;&gt;Concatenate&lt;/font&gt;&lt;/b&gt;" style="rounded=0;whiteSpace=wrap;html=1;fillColor=#f5f5f5;fontColor=#333333;strokeColor=#666666;" vertex="1" parent="1">
          <mxGeometry x="30" y="300" width="120" height="40" as="geometry" />
        </mxCell>
        <mxCell id="hcDZTdP5PS0aj2bccaUB-22" style="edgeStyle=orthogonalEdgeStyle;rounded=0;orthogonalLoop=1;jettySize=auto;html=1;exitX=0.5;exitY=1;exitDx=0;exitDy=0;entryX=0.5;entryY=0;entryDx=0;entryDy=0;" edge="1" parent="1" source="hcDZTdP5PS0aj2bccaUB-15" target="hcDZTdP5PS0aj2bccaUB-21">
          <mxGeometry relative="1" as="geometry" />
        </mxCell>
        <mxCell id="hcDZTdP5PS0aj2bccaUB-15" value="&lt;b&gt;&lt;font style=&quot;font-size: 16px;&quot;&gt;3 * 1 Conv, 256&lt;/font&gt;&lt;/b&gt;" style="rounded=0;whiteSpace=wrap;html=1;fillColor=#f8cecc;strokeColor=#b85450;" vertex="1" parent="1">
          <mxGeometry x="40" y="370" width="90" height="40" as="geometry" />
        </mxCell>
        <mxCell id="hcDZTdP5PS0aj2bccaUB-23" style="edgeStyle=orthogonalEdgeStyle;rounded=0;orthogonalLoop=1;jettySize=auto;html=1;exitX=0.5;exitY=1;exitDx=0;exitDy=0;entryX=0.5;entryY=0;entryDx=0;entryDy=0;" edge="1" parent="1" source="hcDZTdP5PS0aj2bccaUB-19" target="hcDZTdP5PS0aj2bccaUB-21">
          <mxGeometry relative="1" as="geometry" />
        </mxCell>
        <mxCell id="hcDZTdP5PS0aj2bccaUB-19" value="&lt;b&gt;&lt;font style=&quot;font-size: 16px;&quot;&gt;3 * 1 Conv, 256&lt;/font&gt;&lt;/b&gt;" style="rounded=0;whiteSpace=wrap;html=1;fillColor=#f8cecc;strokeColor=#b85450;" vertex="1" parent="1">
          <mxGeometry x="170" y="370" width="90" height="40" as="geometry" />
        </mxCell>
        <mxCell id="hcDZTdP5PS0aj2bccaUB-26" style="edgeStyle=orthogonalEdgeStyle;rounded=0;orthogonalLoop=1;jettySize=auto;html=1;exitX=0.5;exitY=1;exitDx=0;exitDy=0;entryX=0.5;entryY=0;entryDx=0;entryDy=0;" edge="1" parent="1" source="hcDZTdP5PS0aj2bccaUB-21" target="hcDZTdP5PS0aj2bccaUB-24">
          <mxGeometry relative="1" as="geometry" />
        </mxCell>
        <mxCell id="hcDZTdP5PS0aj2bccaUB-21" value="&lt;b&gt;&lt;font style=&quot;font-size: 16px;&quot;&gt;Add&lt;/font&gt;&lt;/b&gt;" style="rounded=0;whiteSpace=wrap;html=1;fillColor=#f5f5f5;fontColor=#333333;strokeColor=#666666;" vertex="1" parent="1">
          <mxGeometry x="100" y="450" width="90" height="30" as="geometry" />
        </mxCell>
        <mxCell id="hcDZTdP5PS0aj2bccaUB-24" value="&lt;b&gt;&lt;font style=&quot;font-size: 16px;&quot;&gt;ReLU&lt;/font&gt;&lt;/b&gt;" style="rounded=0;whiteSpace=wrap;html=1;fillColor=#dae8fc;strokeColor=#6c8ebf;" vertex="1" parent="1">
          <mxGeometry x="100" y="500" width="90" height="30" as="geometry" />
        </mxCell>
      </root>
    </mxGraphModel>
  </diagram>
</mxfile>
